# xmcd CD database file
#
# Track frame offsets:
#	150
#	19191
#	37191
#	57813
#	75261
#	92511
#	118665
#	146751
#	172419
#	194105
#	214786
#
# Disc length: 3351 seconds
#
# Revision: 0
# Processed by: cddbd v1.5.2PL0 Copyright (c) Steve Scherf et al.
# Submitted via: CDex 1.70beta2
#
DISCID=9f0d150b
DTITLE=The S'Coolmasters BigBand - Once Again
DYEAR=2009
DGENRE=Jazz
TTITLE0=Full Count
TTITLE1=One Note samba
TTITLE2=Girl Talk
TTITLE3=Straight No Chaser
TTITLE4=It's Oh So Quiet
TTITLE5=Too Late - The Mambo
TTITLE6=Sally "O"
TTITLE7=Samba del Gringo
TTITLE8=Fever
TTITLE9=Vamos a Bailar
TTITLE10=Who Dunnit
EXTD=YEAR: 2009
EXTT0=
EXTT1=
EXTT2=
EXTT3=
EXTT4=
EXTT5=
EXTT6=
EXTT7=
EXTT8=
EXTT9=
EXTT10=
PLAYORDER=
